<svg xmlns="http://www.w3.org/2000/svg" viewBox="0 0 512 512" role="img" aria-labelledby="title desc">
  <title id="title">FarmPro</title>
  <desc id="desc">緑の背景に白い牛の顔とFPの文字</desc>
  <rect width="512" height="512" rx="112" fill="#2e7d32"/>
  <path d="M126 155c31-38 72-58 130-58s99 20 130 58l41-18-10 76c13 23 20 49 20 78 0 91-73 164-181 164S75 382 75 291c0-29 7-55 20-78l-10-76 41 18Z" fill="#fff"/>
  <ellipse cx="256" cy="300" rx="91" ry="72" fill="#dff2e1"/>
  <circle cx="200" cy="234" r="17" fill="#1b5e20"/>
  <circle cx="312" cy="234" r="17" fill="#1b5e20"/>
  <ellipse cx="226" cy="305" rx="12" ry="18" fill="#1b5e20"/>
  <ellipse cx="286" cy="305" rx="12" ry="18" fill="#1b5e20"/>
  <path d="M218 345c25 20 51 20 76 0" fill="none" stroke="#1b5e20" stroke-width="12" stroke-linecap="round"/>
  <text x="256" y="474" text-anchor="middle" font-family="Arial, sans-serif" font-size="60" font-weight="700" fill="#fff">FP</text>
</svg>
